<svg width="31" height="26" viewBox="0 0 31 26" fill="none" xmlns="http://www.w3.org/2000/svg">
<path d="M0.625 2.375C0.625 1.19961 1.57461 0.25 2.75 0.25H23.125C24.3004 0.25 25.25 1.19961 25.25 2.375C25.25 3.55039 24.3004 4.5 23.125 4.5H2.75C1.57461 4.5 0.625 3.55039 0.625 2.375ZM0.625 13C0.625 11.8246 1.57461 10.875 2.75 10.875H17C18.1754 10.875 19.125 11.8246 19.125 13C19.125 14.1754 18.1754 15.125 17 15.125H2.75C1.57461 15.125 0.625 14.1754 0.625 13ZM30.375 23.625C30.375 24.8004 29.4254 25.75 28.25 25.75H2.75C1.57461 25.75 0.625 24.8004 0.625 23.625C0.625 22.4496 1.57461 21.5 2.75 21.5H28.25C29.4254 21.5 30.375 22.4496 30.375 23.625Z" fill="#0A365F"/>
</svg>
